<svg width="48" height="79" viewBox="0 0 48 79" fill="none" xmlns="http://www.w3.org/2000/svg">
<path id="Vector" d="M33.4 13.4221C34.6465 13.4221 35.842 12.9683 36.7234 12.1605C37.6048 11.3527 38.1 10.2571 38.1 9.11471V4.80736C38.1 3.66497 37.6048 2.56938 36.7234 1.7616C35.842 0.953809 34.6465 0.5 33.4 0.5H14.6C13.3535 0.5 12.158 0.953809 11.2766 1.7616C10.3952 2.56938 9.9 3.66497 9.9 4.80736V9.11471C9.9 10.2571 10.3952 11.3527 11.2766 12.1605C12.158 12.9683 13.3535 13.4221 14.6 13.4221M33.4 13.4221H14.6M33.4 13.4221V17.6433C33.4007 19.4731 34.1095 21.2435 35.4003 22.6394C36.6912 24.0354 38.4805 24.9666 40.45 25.2673C44.5202 25.8876 47.5 29.1138 47.5 32.8913V69.4177C47.5 71.7025 46.5096 73.8936 44.7468 75.5092C42.984 77.1248 40.593 78.0324 38.1 78.0324H9.9C7.40696 78.0324 5.01604 77.1248 3.2532 75.5092C1.49035 73.8936 0.5 71.7025 0.5 69.4177V32.8913C0.5 29.1138 3.4798 25.8876 7.55 25.2673C11.6202 24.647 14.6 21.4208 14.6 17.6433V13.4221M0.5 39.2662H47.5M0.5 65.1103H47.5M19.3 52.1883H28.7" stroke="#1E3871" stroke-linecap="round" stroke-linejoin="round"/>
</svg>
