<svg width="41" height="37" viewBox="0 0 41 37" fill="none" xmlns="http://www.w3.org/2000/svg">
<path id="Vector" d="M12.3114 37C11.1828 37 10.2171 36.638 9.4141 35.914C8.61112 35.19 8.20895 34.3187 8.20758 33.3C8.20622 32.2812 8.60839 31.4105 9.4141 30.6878C10.2198 29.965 11.1856 29.6024 12.3114 29.6C13.4372 29.5975 14.4036 29.9601 15.2107 30.6878C16.0178 31.4154 16.4193 32.2862 16.4152 33.3C16.4111 34.3138 16.0096 35.1851 15.2107 35.914C14.4118 36.6429 13.4454 37.0049 12.3114 37ZM32.8303 37C31.7018 37 30.736 36.638 29.9331 35.914C29.1301 35.19 28.7279 34.3187 28.7265 33.3C28.7252 32.2812 29.1273 31.4105 29.9331 30.6878C30.7388 29.965 31.7045 29.6024 32.8303 29.6C33.9561 29.5975 34.9226 29.9601 35.7297 30.6878C36.5367 31.4154 36.9382 32.2862 36.9341 33.3C36.93 34.3138 36.5285 35.1851 35.7297 35.914C34.9308 36.6429 33.9643 37.0049 32.8303 37ZM10.5673 7.39999L15.4918 16.65H29.8551L35.4978 7.39999H10.5673ZM8.61796 3.7H38.8834C39.67 3.7 40.2685 4.01634 40.6788 4.64904C41.0892 5.28174 41.1063 5.92123 40.7301 6.56749L33.4459 18.4075C33.0697 19.0241 32.5656 19.5021 31.9337 19.8412C31.3017 20.1804 30.6088 20.35 29.8551 20.35H14.5685L12.3114 24.05H36.9341V27.75H12.3114C10.7725 27.75 9.60971 27.1413 8.82315 25.924C8.03659 24.7067 8.00239 23.4962 8.72056 22.2925L11.4906 17.76L4.10379 3.7H0V0H6.66866L8.61796 3.7Z" fill="#1E3871"/>
</svg>
