<svg width="42" height="45" viewBox="0 0 42 45" fill="none" xmlns="http://www.w3.org/2000/svg">
<g id="Frame">
<path id="Vector" d="M10.2375 32.0625C11.725 30.8438 13.3875 29.8831 15.225 29.1806C17.0625 28.4781 18.9875 28.1262 21 28.125C23.0125 28.1238 24.9375 28.4756 26.775 29.1806C28.6125 29.8856 30.275 30.8463 31.7625 32.0625C32.7833 30.7812 33.5784 29.3281 34.1478 27.7031C34.7171 26.0781 35.0012 24.3438 35 22.5C35 18.3438 33.6368 14.8044 30.9103 11.8819C28.1838 8.95937 24.8803 7.49875 21 7.5C17.1197 7.50125 13.8163 8.9625 11.0898 11.8837C8.36325 14.805 7 18.3438 7 22.5C7 24.3438 7.28467 26.0781 7.854 27.7031C8.42334 29.3281 9.21784 30.7812 10.2375 32.0625ZM21 24.375C19.2792 24.375 17.8278 23.7425 16.646 22.4775C15.4642 21.2125 14.8738 19.6575 14.875 17.8125C14.8762 15.9675 15.4671 14.4125 16.6478 13.1475C17.8284 11.8825 19.2792 11.25 21 11.25C22.7208 11.25 24.1722 11.8831 25.354 13.1494C26.5358 14.4156 27.1262 15.97 27.125 17.8125C27.1238 19.655 26.5335 21.21 25.354 22.4775C24.1745 23.745 22.7232 24.3775 21 24.375ZM21 41.25C18.5792 41.25 16.3042 40.7575 14.175 39.7725C12.0458 38.7875 10.1938 37.4519 8.61875 35.7656C7.04375 34.0794 5.79717 32.095 4.879 29.8125C3.96084 27.53 3.50117 25.0925 3.5 22.5C3.49884 19.9075 3.9585 17.47 4.879 15.1875C5.7995 12.905 7.04609 10.9206 8.61875 9.23438C10.1914 7.54813 12.0435 6.2125 14.175 5.2275C16.3065 4.2425 18.5815 3.75 21 3.75C23.4185 3.75 25.6935 4.2425 27.825 5.2275C29.9565 6.2125 31.8086 7.54813 33.3813 9.23438C34.9539 10.9206 36.2011 12.905 37.1228 15.1875C38.0444 17.47 38.5035 19.9075 38.5 22.5C38.4965 25.0925 38.0368 27.53 37.121 29.8125C36.2052 32.095 34.9586 34.0794 33.3813 35.7656C31.8039 37.4519 29.9518 38.7881 27.825 39.7744C25.6982 40.7606 23.4232 41.2525 21 41.25Z" fill="#1E3871"/>
</g>
</svg>
