<svg width="33" height="106" viewBox="0 0 33 106" fill="none" xmlns="http://www.w3.org/2000/svg">
<path id="Vector" d="M11.0713 18.0022V29.6681C11.0713 29.6681 0.503243 35.5011 0.503243 48.6253C0.503243 61.7495 4.02594 61.7495 4.02594 66.1242C4.02594 70.4989 0.503243 72.6863 0.503243 79.2484V93.8308C0.503243 99.3021 4.02594 105.497 9.31 105.497C14.594 105.497 16.3554 100.031 16.3554 100.031C16.3554 100.031 18.1168 105.497 23.4008 105.497C28.6849 105.497 32.2076 99.3021 32.2076 93.8308V79.2484C32.2076 72.6863 28.6849 70.4989 28.6849 66.1242C28.6849 61.7495 32.2076 61.7495 32.2076 48.6253C32.2076 35.5011 21.6395 29.6681 21.6395 29.6681V18.0022M11.0713 18.0022H7.54865V0.503243H25.1622V18.0022H21.6395M11.0713 18.0022H21.6395M0.658241 53H32.0526M0.503243 82.1649H32.2076" stroke="#1E3871" stroke-linecap="round" stroke-linejoin="round"/>
</svg>
