<svg width="36" height="49" viewBox="0 0 36 49" fill="none" xmlns="http://www.w3.org/2000/svg">
<path id="Vector" d="M33.9 48.618C29.7333 48.618 25.6167 47.3918 21.55 44.9393C17.4833 42.4868 13.7833 39.0088 10.45 34.5053C7.11667 30.0018 4.542 25.005 2.726 19.5147C0.91 14.0245 0.00133333 8.46494 0 2.83605C0 2.02575 0.2 1.3505 0.6 0.810301C1 0.2701 1.5 0 2.1 0H10.2C10.6667 0 11.0833 0.214279 11.45 0.642838C11.8167 1.0714 12.0333 1.57739 12.1 2.1608L13.4 11.6143C13.4667 12.3346 13.45 12.9423 13.35 13.4375C13.25 13.9327 13.0667 14.3603 12.8 14.7205L7.95 21.3379C8.61667 23.0035 9.408 24.6124 10.324 26.1646C11.24 27.7168 12.2487 29.214 13.35 30.6564C14.3833 32.0519 15.4667 33.3466 16.6 34.5404C17.7333 35.7343 18.9333 36.8255 20.2 37.814L24.9 31.4667C25.2 31.0615 25.592 30.7581 26.076 30.5564C26.56 30.3548 27.0347 30.298 27.5 30.3863L34.4 32.277C34.8667 32.457 35.25 32.7839 35.55 33.2574C35.85 33.731 36 34.2595 36 34.8429V45.782C36 46.5923 35.8 47.2675 35.4 47.8077C35 48.3479 34.5 48.618 33.9 48.618Z" fill="#1E3871"/>
</svg>
