<svg width="41" height="50" viewBox="0 0 41 50" fill="none" xmlns="http://www.w3.org/2000/svg">
<path id="Vector" d="M12.3114 49.9685C11.1828 49.9685 10.2171 49.4796 9.4141 48.5019C8.61112 47.5242 8.20895 46.3474 8.20758 44.9716C8.20622 43.5958 8.60839 42.4199 9.4141 41.4439C10.2198 40.4678 11.1856 39.9781 12.3114 39.9748C13.4372 39.9715 14.4036 40.4611 15.2107 41.4439C16.0178 42.4266 16.4193 43.6025 16.4152 44.9716C16.4111 46.3408 16.0096 47.5175 15.2107 48.5019C14.4118 49.4863 13.4454 49.9751 12.3114 49.9685ZM32.8303 49.9685C31.7018 49.9685 30.736 49.4796 29.9331 48.5019C29.1301 47.5242 28.7279 46.3474 28.7265 44.9716C28.7252 43.5958 29.1273 42.4199 29.9331 41.4439C30.7388 40.4678 31.7045 39.9781 32.8303 39.9748C33.9561 39.9715 34.9226 40.4611 35.7297 41.4439C36.5367 42.4266 36.9382 43.6025 36.9341 44.9716C36.93 46.3408 36.5285 47.5175 35.7297 48.5019C34.9308 49.4863 33.9643 49.9751 32.8303 49.9685ZM10.5673 9.9937L15.4918 22.4858H29.8551L35.4978 9.9937H10.5673ZM8.61796 4.99685H38.8834C39.67 4.99685 40.2685 5.42408 40.6788 6.27854C41.0892 7.133 41.1063 7.99662 40.7301 8.8694L33.4459 24.8593C33.0697 25.6921 32.5656 26.3376 31.9337 26.7956C31.3017 27.2536 30.6088 27.4827 29.8551 27.4827H14.5685L12.3114 32.4795H36.9341V37.4764H12.3114C10.7725 37.4764 9.60971 36.6544 8.82315 35.0104C8.03659 33.3665 8.00239 31.7316 8.72056 30.106L11.4906 23.9849L4.10379 4.99685H0V0H6.66866L8.61796 4.99685Z" fill="#1E3871"/>
</svg>
