<svg width="48" height="106" viewBox="0 0 48 106" fill="none" xmlns="http://www.w3.org/2000/svg">
<path id="Vector" d="M33.4 17.9513C34.6465 17.9513 35.842 17.3384 36.7234 16.2475C37.6048 15.1566 38.1 13.677 38.1 12.1342V6.31709C38.1 4.7743 37.6048 3.2947 36.7234 2.20379C35.842 1.11287 34.6465 0.5 33.4 0.5H14.6C13.3535 0.5 12.158 1.11287 11.2766 2.20379C10.3952 3.2947 9.9 4.7743 9.9 6.31709V12.1342C9.9 13.677 10.3952 15.1566 11.2766 16.2475C12.158 17.3384 13.3535 17.9513 14.6 17.9513M33.4 17.9513H14.6M33.4 17.9513V23.652C33.4007 26.1232 34.1095 28.5141 35.4003 30.3993C36.6912 32.2846 38.4805 33.5421 40.45 33.9483C44.5202 34.7859 47.5 39.1429 47.5 44.2445V93.5734C47.5 96.659 46.5096 99.6182 44.7468 101.8C42.984 103.982 40.593 105.208 38.1 105.208H9.9C7.40696 105.208 5.01604 103.982 3.2532 101.8C1.49035 99.6182 0.5 96.659 0.5 93.5734V44.2445C0.5 39.1429 3.4798 34.7859 7.55 33.9483C11.6202 33.1106 14.6 28.7536 14.6 23.652V17.9513M0.5 52.8538H47.5M0.5 87.7563H47.5M19.3 70.3051H28.7" stroke="#1E3871" stroke-linecap="round" stroke-linejoin="round"/>
</svg>
