<svg width="53" height="59" viewBox="0 0 53 59" fill="none" xmlns="http://www.w3.org/2000/svg">
<path id="Vector" d="M26.5 26.753C23.378 26.753 20.7041 25.4419 18.4781 22.8197C16.2521 20.1974 15.1403 17.049 15.1429 13.3743C15.1454 9.69965 16.2571 6.54823 18.4781 3.92007C20.699 1.29191 23.373 -0.0147398 26.5 0.000125409C29.627 0.0149906 32.301 1.32312 34.5219 3.92453C36.7429 6.52594 37.8546 9.67735 37.8571 13.3788C37.8597 17.0802 36.7479 20.2287 34.5219 22.8241C32.2959 25.4196 29.622 26.7262 26.5 26.753ZM0 59V51.6596C0 49.7747 0.463119 48.0414 1.38936 46.4597C2.3156 44.8781 3.53207 43.6443 5.03879 42.7583C8.43583 40.8734 11.9313 39.3928 15.5252 38.3166C19.1191 37.2404 22.7824 36.7037 26.5151 36.7067C30.2479 36.7097 33.9061 37.2463 37.4899 38.3166C41.0737 39.3928 44.5642 40.8734 47.9612 42.7583C49.4679 43.6443 50.6844 44.8781 51.6106 46.4597C52.5369 48.0414 53 49.7732 53 51.6551V58.9955L0 59ZM26.5 22.2979C28.5821 22.2979 30.3652 21.4238 31.8492 19.6757C33.3332 17.9275 34.074 15.8271 34.0714 13.3743C34.0689 10.9216 33.3282 8.82112 31.8492 7.07298C30.3703 5.32483 28.5872 4.45225 26.5 4.45522C24.4128 4.45819 22.631 5.33078 21.1546 7.07298C19.6781 8.81517 18.9361 10.9156 18.9286 13.3743C18.921 15.833 19.663 17.932 21.1546 19.6712C22.6461 21.4104 24.428 22.289 26.5 22.2979ZM39.4585 43.5075V54.5404H49.2143V51.6551C49.2143 50.5521 48.9114 49.5814 48.3057 48.743C47.7 47.9046 46.9832 47.2119 46.1554 46.6649C45.0778 46.0108 43.9774 45.4296 42.8543 44.9212C41.7312 44.4128 40.5993 43.9416 39.4585 43.5075ZM17.3272 42.3703V47.8511H35.6728V42.3659C34.1686 41.9556 32.6455 41.6523 31.1034 41.4561C29.5639 41.2599 28.0244 41.1618 26.4849 41.1618C24.9403 41.1618 23.4045 41.2599 21.8776 41.4561C20.3507 41.6523 18.8339 41.9571 17.3272 42.3703ZM3.78571 54.5404H13.5415V43.5075C12.4007 43.9386 11.2688 44.4098 10.1457 44.9212C9.02262 45.4326 7.92224 46.0138 6.84457 46.6649C6.01929 47.2089 5.30379 47.9017 4.69807 48.743C4.08983 49.5814 3.78571 50.5521 3.78571 51.6551V54.5404Z" fill="black"/>
</svg>
