<svg width="53" height="54" viewBox="0 0 53 54" fill="none" xmlns="http://www.w3.org/2000/svg">
<path id="Vector" d="M26.5 24.4858C23.378 24.4858 20.7041 23.2858 18.4781 20.8858C16.2521 18.4858 15.1403 15.6042 15.1429 12.2409C15.1454 8.87765 16.2571 5.9933 18.4781 3.58786C20.699 1.18242 23.373 -0.0134906 26.5 0.000114781C29.627 0.0137202 32.301 1.211 34.5219 3.59194C36.7429 5.97289 37.8546 8.85724 37.8571 12.245C37.8597 15.6327 36.7479 18.5144 34.5219 20.8899C32.2959 23.2654 29.622 24.4613 26.5 24.4858ZM0 54V47.2816C0 45.5565 0.463119 43.9701 1.38936 42.5225C2.3156 41.0749 3.53207 39.9456 5.03879 39.1347C8.43583 37.4096 11.9313 36.0545 15.5252 35.0694C19.1191 34.0844 22.7824 33.5932 26.5151 33.596C30.2479 33.5987 33.9061 34.0898 37.4899 35.0694C41.0737 36.0545 44.5642 37.4096 47.9612 39.1347C49.4679 39.9456 50.6844 41.0749 51.6106 42.5225C52.5369 43.9701 53 45.5551 53 47.2776V53.9959L0 54ZM26.5 20.4082C28.5821 20.4082 30.3652 19.6082 31.8492 18.0082C33.3332 16.4082 34.074 14.4858 34.0714 12.2409C34.0689 9.99601 33.3282 8.07357 31.8492 6.47357C30.3703 4.87357 28.5872 4.07494 26.5 4.07766C24.4128 4.08038 22.631 4.87902 21.1546 6.47357C19.6781 8.06812 18.9361 9.99057 18.9286 12.2409C18.921 14.4912 19.663 16.4123 21.1546 18.0042C22.6461 19.596 24.428 20.4001 26.5 20.4082ZM39.4585 39.8204V49.9184H49.2143V47.2776C49.2143 46.268 48.9114 45.3796 48.3057 44.6123C47.7 43.8449 46.9832 43.2109 46.1554 42.7102C45.0778 42.1116 43.9774 41.5796 42.8543 41.1143C41.7312 40.649 40.5993 40.2177 39.4585 39.8204ZM17.3272 38.7796V43.7959H35.6728V38.7755C34.1686 38.4 32.6455 38.1225 31.1034 37.9429C29.5639 37.7633 28.0244 37.6735 26.4849 37.6735C24.9403 37.6735 23.4045 37.7633 21.8776 37.9429C20.3507 38.1225 18.8339 38.4014 17.3272 38.7796ZM3.78571 49.9184H13.5415V39.8204C12.4007 40.215 11.2688 40.6463 10.1457 41.1143C9.02262 41.5823 7.92224 42.1143 6.84457 42.7102C6.01929 43.2082 5.30379 43.8422 4.69807 44.6123C4.08983 45.3796 3.78571 46.268 3.78571 47.2776V49.9184Z" fill="#1E3871"/>
</svg>
