<svg width="33" height="79" viewBox="0 0 33 79" fill="none" xmlns="http://www.w3.org/2000/svg">
<path id="Vector" d="M11.1064 13.5032V22.1688C11.1064 22.1688 0.504837 26.5016 0.504837 36.2504C0.504837 45.9992 4.03869 45.9992 4.03869 49.2488C4.03869 52.4984 0.504837 54.1232 0.504837 58.9976V69.8296C0.504837 73.8937 4.03869 78.4952 9.33948 78.4952C14.6403 78.4952 16.4072 74.4353 16.4072 74.4353C16.4072 74.4353 18.1741 78.4952 23.4749 78.4952C28.7757 78.4952 32.3096 73.8937 32.3096 69.8296V58.9976C32.3096 54.1232 28.7757 52.4984 28.7757 49.2488C28.7757 45.9992 32.3096 45.9992 32.3096 36.2504C32.3096 26.5016 21.708 22.1688 21.708 22.1688V13.5032M11.1064 13.5032H7.57255V0.504837H25.2418V13.5032H21.708M11.1064 13.5032H21.708M0.660325 39.5H32.1541M0.504837 61.164H32.3096" stroke="#1E3871" stroke-linecap="round" stroke-linejoin="round"/>
</svg>
