<svg width="36" height="36" viewBox="0 0 36 36" fill="none" xmlns="http://www.w3.org/2000/svg">
<path id="Vector" d="M33.9 36C29.7333 36 25.6167 35.092 21.55 33.276C17.4833 31.46 13.7833 28.8847 10.45 25.55C7.11667 22.2153 4.542 18.5153 2.726 14.45C0.91 10.3847 0.00133333 6.268 0 2.1C0 1.5 0.2 1 0.6 0.6C1 0.2 1.5 0 2.1 0H10.2C10.6667 0 11.0833 0.158666 11.45 0.476C11.8167 0.793333 12.0333 1.168 12.1 1.6L13.4 8.6C13.4667 9.13333 13.45 9.58333 13.35 9.95C13.25 10.3167 13.0667 10.6333 12.8 10.9L7.95 15.8C8.61667 17.0333 9.408 18.2247 10.324 19.374C11.24 20.5233 12.2487 21.632 13.35 22.7C14.3833 23.7333 15.4667 24.692 16.6 25.576C17.7333 26.46 18.9333 27.268 20.2 28L24.9 23.3C25.2 23 25.592 22.7753 26.076 22.626C26.56 22.4767 27.0347 22.4347 27.5 22.5L34.4 23.9C34.8667 24.0333 35.25 24.2753 35.55 24.626C35.85 24.9767 36 25.368 36 25.8V33.9C36 34.5 35.8 35 35.4 35.4C35 35.8 34.5 36 33.9 36Z" fill="#1E3871"/>
</svg>
